<?xml version="1.0" standalone="no"?>
<!DOCTYPE svg PUBLIC "-//W3C//DTD SVG 20010904//EN"
 "http://www.w3.org/TR/2001/REC-SVG-20010904/DTD/svg10.dtd">
<svg version="1.0" xmlns="http://www.w3.org/2000/svg"
 width="48.000000pt" height="48.000000pt" viewBox="0 0 48.000000 48.000000"
 preserveAspectRatio="xMidYMid meet">

<g transform="translate(0.000000,48.000000) scale(0.100000,-0.100000)"
fill="#000000" stroke="none">
<path d="M186 430 c-37 -11 -90 -48 -106 -74 -11 -17 -9 -23 15 -44 l28 -24
21 25 c39 46 97 60 151 35 22 -10 29 -8 51 13 l25 24 -21 17 c-41 33 -108 44
-164 28z"/>
<path d="M240 240 l0 -40 55 0 c59 0 63 -4 39 -38 -15 -21 -14 -24 8 -42 13
-11 28 -19 34 -20 20 0 56 80 57 128 l2 47 -97 3 -98 3 0 -41z"/>
</g>
</svg>
